<?xml version="1.0"?>
<svg xmlns="http://www.w3.org/2000/svg" xmlns:xlink="http://www.w3.org/1999/xlink" xmlns:svgjs="http://svgjs.com/svgjs" version="1.1" width="512" height="512" x="0" y="0" viewBox="0 0 192 192" style="enable-background:new 0 0 512 512" xml:space="preserve" class=""><g><g xmlns="http://www.w3.org/2000/svg" id="_27-creativity" data-name="27-creativity"><g id="Glyph"><path d="m56 176a16 16 0 0 0 16 16h48a16 16 0 0 0 16-16v-8h-80z" fill="#007965" data-original="#000000" style="" class=""/><path d="m56 144h80v16h-80z" fill="#007965" data-original="#000000" style="" class=""/><path d="m176 56h16v16h-16z" fill="#007965" data-original="#000000" style="" class=""/><path d="m164.686 24h22.627v16h-22.627z" transform="matrix(.707 -.707 .707 .707 28.917 133.817)" fill="#007965" data-original="#000000" style="" class=""/><path d="m168 84.686h16v22.627h-16z" transform="matrix(.707 -.707 .707 .707 -16.333 152.569)" fill="#007965" data-original="#000000" style="" class=""/><path d="m0 56h16v16h-16z" fill="#007965" data-original="#000000" style="" class=""/><path d="m8 20.686h16v22.627h-16z" transform="matrix(.707 -.707 .707 .707 -17.941 20.686)" fill="#007965" data-original="#000000" style="" class=""/><path d="m4.686 88h22.627v16h-22.627z" transform="matrix(.707 -.707 .707 .707 -63.194 39.428)" fill="#007965" data-original="#000000" style="" class=""/><path d="m96 0a64 64 0 0 0 -32 119.427v16.573h24v-43.719l-20.438-13.625a8 8 0 0 1 -3.562-6.656v-16h16v11.719l16 10.666 16-10.666v-11.719h16v16a8 8 0 0 1 -3.563 6.656l-20.437 13.625v43.719h24v-16.573a64 64 0 0 0 -32-119.427zm24 40a8 8 0 1 1 8-8 8 8 0 0 1 -8 8z" fill="#007965" data-original="#000000" style="" class=""/></g></g></g></svg>
